<?xml version="1.0" encoding="UTF-8" standalone="no"?>
<svg
   version="1.1"
   id="svg11300"
   height="15.999999"
   width="16"
   sodipodi:docname="gmb-preferences16.svg"
   inkscape:version="1.4.2 (ebf0e940d0, 2025-05-08)"
   xmlns:inkscape="http://www.inkscape.org/namespaces/inkscape"
   xmlns:sodipodi="http://sodipodi.sourceforge.net/DTD/sodipodi-0.dtd"
   xmlns:xlink="http://www.w3.org/1999/xlink"
   xmlns="http://www.w3.org/2000/svg"
   xmlns:svg="http://www.w3.org/2000/svg">
  <sodipodi:namedview
     id="namedview1"
     pagecolor="#ffffff"
     bordercolor="#000000"
     borderopacity="0.25"
     inkscape:showpageshadow="2"
     inkscape:pageopacity="0.0"
     inkscape:pagecheckerboard="0"
     inkscape:deskcolor="#d1d1d1"
     inkscape:zoom="16.520833"
     inkscape:cx="22.184111"
     inkscape:cy="14.375788"
     inkscape:window-width="1920"
     inkscape:window-height="999"
     inkscape:window-x="0"
     inkscape:window-y="0"
     inkscape:window-maximized="1"
     inkscape:current-layer="svg11300" />
  <defs
     id="defs3">
    <linearGradient
       id="linearGradient3264">
      <stop
         id="stop3266"
         offset="0"
         style="stop-color:#c9c9c9;stop-opacity:1;" />
      <stop
         style="stop-color:#f8f8f8;stop-opacity:1;"
         offset="0.25"
         id="stop3276" />
      <stop
         style="stop-color:#e2e2e2;stop-opacity:1;"
         offset="0.5"
         id="stop3272" />
      <stop
         id="stop3274"
         offset="0.75"
         style="stop-color:#b0b0b0;stop-opacity:1;" />
      <stop
         id="stop3268"
         offset="1"
         style="stop-color:#c9c9c9;stop-opacity:1;" />
    </linearGradient>
    <linearGradient
       id="linearGradient3256">
      <stop
         id="stop3258"
         offset="0"
         style="stop-color:#000000;stop-opacity:1;" />
      <stop
         id="stop3260"
         offset="1"
         style="stop-color:#000000;stop-opacity:0;" />
    </linearGradient>
    <radialGradient
       gradientUnits="userSpaceOnUse"
       gradientTransform="matrix(1,0,0,0.315315,-0.883885,29.287924)"
       r="19.622213"
       fy="39.161163"
       fx="25.455845"
       cy="39.161163"
       cx="25.455845"
       id="radialGradient3262"
       xlink:href="#linearGradient3256" />
    <linearGradient
       gradientTransform="matrix(0.44032005,0,0,0.44032005,-2.4361606,-2.5435996)"
       y2="39.684914"
       x2="34.534348"
       y1="12.284524"
       x1="14.462892"
       gradientUnits="userSpaceOnUse"
       id="linearGradient3281"
       xlink:href="#linearGradient3264" />
  </defs>
  <path
     id="path3243"
     d="m 7.5894478,0.17849292 c -0.1650183,0.0112909 -0.325412,0.0368494 -0.4874973,0.0553974 h -0.01108 L 6.7030889,2.3500722 C 6.0710352,2.4940133 5.4764006,2.7382944 4.9414506,3.0702388 L 3.2019712,1.8182569 C 2.7317442,2.183327 2.303842,2.6091001 1.9278303,3.0702388 l 1.2076639,1.7616383 c -0.3666806,0.5603613 -0.6424216,1.2002093 -0.797723,1.872433 -2.65e-5,0.0032 -2.15e-5,0.010527 0,0.01108 L 0.2326689,7.0477744 c -0.0384869,0.31435 -0.0553974,0.6392203 -0.0553974,0.9639153 4e-8,0.2656593 0.007335,0.5277696 0.0332383,0.7866433 l 2.1051024,0.3767026 c 0.1497163,0.7310307 0.434124,1.4137464 0.8309617,2.0164664 l -1.2519822,1.71732 c 0.3585591,0.445136 0.772512,0.850414 1.2187435,1.207664 l 1.7727181,-1.218743 c 0.6195409,0.395216 1.3111312,0.672347 2.0607842,0.808802 l 0.3323847,2.094023 c 0.236191,0.0215 0.4784029,0.02216 0.7201666,0.02216 0.3413137,0 0.667335,-0.01293 0.9971536,-0.0554 L 9.3954041,13.62899 c 0.7117679,-0.17713 1.3804049,-0.484409 1.9610689,-0.897438 l 1.706241,1.240902 c 0.44248,-0.376453 0.847103,-0.809159 1.196585,-1.274141 l -1.240903,-1.794876 c 0.336055,-0.580385 0.568911,-1.2207441 0.686928,-1.905672 l 2.094023,-0.3323847 c 0.01836,-0.2185216 0.02216,-0.4304466 0.02216,-0.6536896 0,-0.3879467 -0.04509,-0.7683257 -0.09971,-1.1411873 L 13.594529,6.4827204 C 13.427825,5.8671534 13.154301,5.2928361 12.807886,4.7764795 L 14.059868,3.0591593 C 13.671794,2.5845648 13.229109,2.1461454 12.741409,1.7739389 L 10.935453,3.0148414 C 10.416403,2.7078643 9.8578307,2.4723252 9.2513707,2.3389927 L 8.9189861,0.23389035 C 8.6164544,0.1983029 8.3114328,0.17849292 7.9993888,0.17849292 c -0.084336,0 -0.1711323,-0.002654 -0.2548283,0 -0.040802,0.001294 -0.081178,-0.002374 -0.1218744,0 -0.011023,6.4266e-4 -0.022237,-7.5267e-4 -0.033237,0 z M 7.8775145,5.5631231 c 0.040477,-0.00207 0.08089,0 0.1218743,0 1.3115016,0 2.3820902,1.0705883 2.3820902,2.3820896 0,1.3115013 -1.0705889,2.3710103 -2.3820902,2.3710103 -1.3115009,0 -2.3710099,-1.059509 -2.3710099,-2.3710103 3e-7,-1.2705163 0.9943526,-2.3184163 2.2491356,-2.3820896 z"
     style="color:#000000;display:inline;overflow:visible;visibility:visible;opacity:1;fill:url(#linearGradient3281);fill-opacity:1;fill-rule:nonzero;stroke:#808080;stroke-width:0.354543;stroke-linecap:butt;stroke-linejoin:miter;stroke-miterlimit:4;stroke-dasharray:none;stroke-dashoffset:0;stroke-opacity:1;marker:none;marker-start:none;marker-mid:none;marker-end:none" />
  <path
     d="m 10.737778,7.9401777 a 2.7369752,2.7369752 0 1 1 -5.4739504,0 2.7369752,2.7369752 0 1 1 5.4739504,0 z"
     id="path3283"
     style="color:#000000;display:inline;overflow:visible;visibility:visible;opacity:1;fill:none;fill-opacity:1;fill-rule:nonzero;stroke:#ffffff;stroke-width:0.354543;stroke-linecap:butt;stroke-linejoin:miter;stroke-miterlimit:4;stroke-dasharray:none;stroke-dashoffset:0;stroke-opacity:1;marker:none;marker-start:none;marker-mid:none;marker-end:none" />
  <path
     style="color:#000000;display:inline;overflow:visible;visibility:visible;opacity:1;fill:none;fill-opacity:1;fill-rule:nonzero;stroke:#ffffff;stroke-width:0.354543;stroke-linecap:butt;stroke-linejoin:miter;stroke-miterlimit:4;stroke-dasharray:none;stroke-dashoffset:0;stroke-opacity:1;marker:none;marker-start:none;marker-mid:none;marker-end:none"
     d="M 7.3440285,0.5973376 7.0326722,2.6462484 C 6.4402305,2.7811684 5.3504606,3.1938094 4.8490369,3.5049502 L 3.1925979,2.2685907 C 2.7518406,2.6107813 2.7216139,2.6339869 2.3691676,3.0662255 L 3.5668347,4.8424721 C 3.2231345,5.3677148 2.8103079,6.3037217 2.6620842,6.972601 c 0,0 -2.09868828,0.3537784 -2.09868828,0.3537784 -0.0360748,0.294649 -0.0187377,0.9252869 0.005542,1.1679366 L 2.5736139,8.8554496 C 2.7139472,9.5406649 3.2391029,10.643621 3.61107,11.208567 l -1.2676975,1.67488 c 0.3360876,0.417238 0.4033514,0.455418 0.8216167,0.790279 l 1.6951324,-1.241902 c 0.5807133,0.370446 1.7333749,0.821082 2.4360456,0.948986 l 0.278206,2.023115 c 0.2213883,0.02015 0.8329933,0.07668 1.1421416,0.03688 l 0.311356,-2.106044 C 9.6950307,13.168733 10.8478,12.695534 11.392073,12.30839 l 1.693319,1.223461 c 0.414749,-0.352859 0.418465,-0.406029 0.746045,-0.841869 l -1.2548,-1.783602 C 12.89163,10.362369 13.298923,9.2984456 13.409543,8.656443 L 15.463997,8.3155623 C 15.48121,8.110736 15.482047,7.5395414 15.430847,7.190048 L 13.3377,6.8289141 C 13.181443,6.2519261 12.645201,5.2122018 12.320497,4.7282068 L 13.650869,3.0533277 C 13.287117,2.6084769 13.151869,2.5474399 12.694734,2.1985603 L 10.942469,3.4533595 C 10.455948,3.1656218 9.4857861,2.7269895 8.9173344,2.6020133 L 8.6077911,0.5973376 c -0.2835713,-0.0333572 -1.1017066,-0.0185447 -1.2637626,0 z"
     id="path3285" />
</svg>
