<?xml version="1.0" encoding="UTF-8" standalone="no"?>
<svg
   version="1.0"
   x="0px"
   y="0px"
   viewBox="0 0 16 16"
   enable-background="new 0 0 24 24"
   xml:space="preserve"
   id="svg1"
   sodipodi:docname="gmb-add_music16.svg"
   width="16"
   height="16"
   inkscape:version="1.4.2 (ebf0e940d0, 2025-05-08)"
   xmlns:inkscape="http://www.inkscape.org/namespaces/inkscape"
   xmlns:sodipodi="http://sodipodi.sourceforge.net/DTD/sodipodi-0.dtd"
   xmlns="http://www.w3.org/2000/svg"
   xmlns:svg="http://www.w3.org/2000/svg"><defs
     id="defs1" /><sodipodi:namedview
     id="namedview1"
     pagecolor="#ffffff"
     bordercolor="#000000"
     borderopacity="0.25"
     inkscape:showpageshadow="2"
     inkscape:pageopacity="0.0"
     inkscape:pagecheckerboard="0"
     inkscape:deskcolor="#d1d1d1"
     inkscape:zoom="33.041667"
     inkscape:cx="8.852459"
     inkscape:cy="10.093317"
     inkscape:window-width="1920"
     inkscape:window-height="999"
     inkscape:window-x="0"
     inkscape:window-y="0"
     inkscape:window-maximized="1"
     inkscape:current-layer="svg1" /><path
     d="M 14.4,3.2 H 7.2 L 5.6,1.6 h -4 C 0.72,1.6 0,2.32 0,3.2 v 9.6 c 0,0.88 0.72,1.6 1.6,1.6 h 12.8 c 0.88,0 1.6,-0.72 1.6,-1.6 v -8 C 16,3.92 15.28,3.2 14.4,3.2 Z m -5.6,4 c 0,0 0,2.96 0,3.04 0,0.72 -0.72,1.52 -1.6,1.68 C 6.32,12.16 5.6,11.68 5.6,10.96 5.6,10.24 6.32,9.44 7.2,9.28 7.52,9.2 7.76,9.2 8,9.28 V 5.6 h 0.8 c 1.68,0 2.4,2.4 2.4,2.4 0,0 -0.72,-0.8 -2.4,-0.8 z"
     id="path1"
     style="stroke-width:0.8;opacity:0.5" /></svg>
