<?xml version="1.0" encoding="UTF-8" standalone="no"?>
<!-- Generator: Adobe Illustrator 19.1.0, SVG Export Plug-In . SVG Version: 6.00 Build 0)  -->

<svg
   version="1.1"
   x="0px"
   y="0px"
   viewBox="0 0 64 64"
   style="enable-background:new 0 0 64 64;"
   xml:space="preserve"
   id="svg7"
   sodipodi:docname="label-Épinglé.svg"
   inkscape:version="1.4.2 (ebf0e940d0, 2025-05-08)"
   xmlns:inkscape="http://www.inkscape.org/namespaces/inkscape"
   xmlns:sodipodi="http://sodipodi.sourceforge.net/DTD/sodipodi-0.dtd"
   xmlns="http://www.w3.org/2000/svg"
   xmlns:svg="http://www.w3.org/2000/svg"><defs
   id="defs7">
	
	
	
	
	
	
	
</defs><sodipodi:namedview
   id="namedview7"
   pagecolor="#ffffff"
   bordercolor="#000000"
   borderopacity="0.25"
   inkscape:showpageshadow="2"
   inkscape:pageopacity="0.0"
   inkscape:pagecheckerboard="0"
   inkscape:deskcolor="#d1d1d1"
   inkscape:zoom="12.390625"
   inkscape:cx="30.789407"
   inkscape:cy="35.631778"
   inkscape:window-width="1920"
   inkscape:window-height="999"
   inkscape:window-x="0"
   inkscape:window-y="0"
   inkscape:window-maximized="1"
   inkscape:current-layer="svg7" />
<style
   type="text/css"
   id="style1">
	.st0{fill:#E0E0D1;}
	.st1{opacity:0.2;}
	.st2{fill:#231F20;}
	.st3{fill:#C75C5C;}
	.st4{fill:#4F5D73;}
</style>
<rect
   style="fill:#ffffff;fill-opacity:1;stroke-width:0.5;stroke-linejoin:round"
   id="rect9"
   width="64"
   height="64"
   x="-138.56082"
   y="8.6743183" /><g
   class="st1"
   id="g2"
   transform="matrix(1.2091569,1.1949551,-1.1949551,1.2091569,29.41942,-43.258438)">
		<path
   class="st2"
   d="M 39.5,37.2 V 22.8 c 2.7,-0.9 4.5,-2.3 4.5,-3.9 0,-2.8 -5.4,-4 -12,-4 -6.6,0 -12,1.2 -12,4 0,1.6 1.8,3 4.5,3.9 V 37.1 C 21.8,38 20,39.4 20,41 c 0,2.5 4.3,4.5 10,4.9 V 53 l 2,4 2,-4 v -7 c 5.7,-0.4 10,-2.4 10,-4.9 0,-1.6 -1.8,-3 -4.5,-3.9 z"
   id="path1" />
	</g><g
   id="g5"
   style="fill:#fffc06;fill-opacity:1"
   transform="matrix(1.2091569,1.1949551,-1.1949551,1.2091569,29.41942,-43.258438)">
		<g
   id="g8"
   style="fill:#fffc06;fill-opacity:1"><g
     id="g3"
     style="fill:#fffc06;fill-opacity:1">
		<ellipse
   class="st3"
   cx="32"
   cy="39.099998"
   rx="12"
   ry="5"
   id="ellipse2"
   style="fill:#fffc06;fill-opacity:1" />
	</g><g
     id="g4"
     style="fill:#fffc06;fill-opacity:1">
		<path
   class="st3"
   d="m 44,16.9 c 0,2.8 -5.4,5 -12,5 -6.6,0 -12,-2.2 -12,-5 0,-2.8 5.4,-4 12,-4 6.6,0 12,1.3 12,4 z"
   id="path3"
   style="fill:#fffc06;fill-opacity:1" />
	</g><rect
     x="25"
     y="20"
     class="st3"
     width="14"
     height="20"
     id="rect4"
     style="fill:#fffc06;fill-opacity:1" /></g>
	</g><g
   id="g6"
   transform="matrix(1.2091569,1.1949551,-1.1949551,1.2091569,29.41942,-43.258438)">
		<polygon
   class="st4"
   points="30,41.1 30,51.1 32,55.1 34,51.1 34,41.1 "
   id="polygon5" />
	</g><g
   id="g7"
   transform="matrix(1.2091569,1.1949551,-1.1949551,1.2091569,29.41942,-43.258438)">
		<ellipse
   class="st4"
   cx="32"
   cy="41.200001"
   rx="2"
   ry="1.4"
   id="ellipse6" />
	</g>
<g
   id="Layer_2">
</g>
</svg>
