<?xml version="1.0" encoding="UTF-8" standalone="no"?>
<svg
   viewBox="0 0 48 48"
   enable-background="new 0 0 64 64"
   version="1.1"
   id="svg1"
   sodipodi:docname="label-Bonus.svg"
   width="48"
   height="48"
   inkscape:version="1.4 (e7c3feb100, 2024-10-09)"
   xmlns:inkscape="http://www.inkscape.org/namespaces/inkscape"
   xmlns:sodipodi="http://sodipodi.sourceforge.net/DTD/sodipodi-0.dtd"
   xmlns="http://www.w3.org/2000/svg"
   xmlns:svg="http://www.w3.org/2000/svg">
  <defs
     id="defs1" />
  <sodipodi:namedview
     id="namedview1"
     pagecolor="#ffffff"
     bordercolor="#000000"
     borderopacity="0.25"
     inkscape:showpageshadow="2"
     inkscape:pageopacity="0.0"
     inkscape:pagecheckerboard="0"
     inkscape:deskcolor="#d1d1d1"
     inkscape:zoom="9.2395286"
     inkscape:cx="12.067715"
     inkscape:cy="33.659726"
     inkscape:window-width="1920"
     inkscape:window-height="999"
     inkscape:window-x="0"
     inkscape:window-y="0"
     inkscape:window-maximized="1"
     inkscape:current-layer="svg1" />
  <path
     d="M 23.98084,0 C 21.861825,0 20.436568,0.16967187 19.701085,0.51367187 18.965601,0.85767188 18.668218,1.3698875 18.805371,2.0546875 L 20.737016,18.800781 6.1084156,8.9199219 c -0.5520411,-0.384 -1.1775743,-0.384 -1.8667685,0 -0.6891941,0.384 -1.5623797,1.4100311 -2.6201727,3.0820311 -1.05779311,1.6656 -1.59924631,2.873894 -1.61981941,3.621094 -0.027431,0.7488 0.2862938,1.275372 0.9291988,1.576172 L 17.564347,24.001953 0.93085379,30.865234 c -0.6429051,0.2592 -0.9566294,0.762566 -0.9291988,1.509766 0.018859,0.7504 0.5620263,1.955494 1.61981941,3.621094 1.057793,1.7152 1.9309786,2.761237 2.6201727,3.148437 0.6891942,0.384 1.3147274,0.384 1.8667685,0 L 20.737016,29.199219 18.805371,46.013672 c -0.138867,0.6384 0.158516,1.129903 0.895714,1.470703 C 20.438282,47.828375 21.861825,48 23.98084,48 c 2.113872,0 3.543893,-0.171625 4.277662,-0.515625 0.735483,-0.3408 1.033624,-0.833903 0.8999,-1.470703 l -1.93583,-16.814453 14.699755,9.945312 c 0.552041,0.384 1.160099,0.384 1.827005,0 0.666907,-0.3872 1.530988,-1.433237 2.588781,-3.148437 1.057793,-1.6656 1.6112,-2.870694 1.657489,-3.621094 0.04458,-0.7456 -0.249379,-1.250566 -0.895713,-1.509766 L 30.466395,24.003906 47.097796,17.199219 C 47.74413,16.900019 48.03637,16.3754 47.99351,15.625 c -0.048,-0.7472 -0.599697,-1.929794 -1.65749,-3.558594 -1.057793,-1.7104 -1.923588,-2.760531 -2.58878,-3.144531 -0.665193,-0.384 -1.274965,-0.384 -1.827007,0 L 27.220478,18.802734 29.156309,2.0566406 C 29.291748,1.3718406 28.993607,0.859625 28.256409,0.515625 27.52264,0.171625 26.092997,0 23.98084,0 Z"
     style="stroke-width:1.65622;stroke-linejoin:round"
     id="path5" />
</svg>
