<?xml version="1.0" encoding="UTF-8" standalone="no"?>
<svg
   viewBox="0 0 16 16"
   version="1.1"
   id="svg38"
   sodipodi:docname="gmb-find.svg"
   width="16"
   height="16"
   inkscape:version="1.4.2 (ebf0e940d0, 2025-05-08)"
   xmlns:inkscape="http://www.inkscape.org/namespaces/inkscape"
   xmlns:sodipodi="http://sodipodi.sourceforge.net/DTD/sodipodi-0.dtd"
   xmlns="http://www.w3.org/2000/svg"
   xmlns:svg="http://www.w3.org/2000/svg">
  <sodipodi:namedview
     id="namedview38"
     pagecolor="#ffffff"
     bordercolor="#000000"
     borderopacity="0.25"
     inkscape:showpageshadow="2"
     inkscape:pageopacity="0.0"
     inkscape:pagecheckerboard="0"
     inkscape:deskcolor="#d1d1d1"
     inkscape:zoom="24.78125"
     inkscape:cx="4.4186633"
     inkscape:cy="9.4627995"
     inkscape:window-width="1920"
     inkscape:window-height="999"
     inkscape:window-x="0"
     inkscape:window-y="0"
     inkscape:window-maximized="1"
     inkscape:current-layer="svg38" />
  <defs
     id="defs28">
    <radialGradient
       id="rg1"
       cy="19.923"
       cx="92.957001"
       r="176.53999"
       gradientUnits="userSpaceOnUse">
      <stop
         stop-color="#fff"
         offset="0"
         id="stop1" />
      <stop
         stop-color="#94caff"
         offset="0.44999999"
         id="stop2"
         style="stop-color:#c9c9c9;stop-opacity:1;" />
      <stop
         stop-color="#c9e6ff"
         offset="0.60000002"
         id="stop3"
         style="stop-color:#e4e4e4;stop-opacity:1;" />
      <stop
         stop-color="#fff"
         offset="1"
         id="stop4" />
    </radialGradient>
    <radialGradient
       id="rg2"
       cy="20.056999"
       cx="92.633003"
       gradientUnits="userSpaceOnUse"
       gradientTransform="matrix(-0.7071,0.7071,0.7071,0.7071,148.88,-37.214)"
       r="176.53999">
      <stop
         stop-color="#0035ed"
         offset="0"
         id="stop5"
         style="stop-color:#777777;stop-opacity:1;" />
      <stop
         stop-color="#94caff"
         offset="0.56739998"
         id="stop6"
         style="stop-color:#c9c9c9;stop-opacity:1;" />
      <stop
         stop-color="#c9e6ff"
         offset="0.70789999"
         id="stop7"
         style="stop-color:#e4e4e4;stop-opacity:1;" />
      <stop
         stop-color="#034cfe"
         offset="1"
         id="stop8"
         style="stop-color:#808080;stop-opacity:1;" />
    </radialGradient>
    <linearGradient
       id="lg1"
       y2="98.412003"
       x2="169.09"
       y1="98.412003"
       x1="27.736"
       gradientUnits="userSpaceOnUse">
      <stop
         stop-color="#fff"
         offset="0"
         id="stop9" />
      <stop
         stop-color="#494949"
         offset="1"
         id="stop10" />
    </linearGradient>
    <linearGradient
       id="lg2"
       y2="149.92"
       x2="124.58"
       gradientUnits="userSpaceOnUse"
       gradientTransform="matrix(-0.7071,0.7071,0.5826,0.5826,169.53,-16.561)"
       y1="149.92"
       x1="134.82001">
      <stop
         stop-color="#b2b2b2"
         offset="0"
         id="stop11" />
      <stop
         stop-color="#fff"
         offset="1"
         id="stop12" />
    </linearGradient>
    <linearGradient
       id="lg3"
       y2="210.97"
       x2="131.59"
       gradientUnits="userSpaceOnUse"
       gradientTransform="matrix(-0.7071,0.7071,0.7071,0.7071,148.88,-37.214)"
       y1="-4.0268998"
       x1="131.59">
      <stop
         stop-color="#dadada"
         offset="0"
         id="stop13" />
      <stop
         stop-color="#949494"
         offset="0.6124"
         id="stop14" />
      <stop
         stop-color="#dadada"
         offset="1"
         id="stop15" />
    </linearGradient>
    <linearGradient
       id="lg4"
       y2="164.09"
       x2="164.09"
       y1="182.14"
       x1="182.14"
       gradientUnits="userSpaceOnUse">
      <stop
         stop-color="#ffd700"
         offset="0"
         id="stop16"
         style="stop-color:#808080;stop-opacity:1;" />
      <stop
         stop-color="#fff"
         offset="1"
         id="stop17" />
    </linearGradient>
    <linearGradient
       id="lg5"
       y2="210.41"
       x2="64.113998"
       gradientUnits="userSpaceOnUse"
       gradientTransform="matrix(-1.2243,-0.1288,0.1288,1.2243,243.05,-40.912)"
       y1="194.82001"
       x1="48.527">
      <stop
         stop-color="#ff6"
         offset="0"
         id="stop18"
         style="stop-color:#b3b3b3;stop-opacity:1;" />
      <stop
         stop-color="#ff6d00"
         offset="1"
         id="stop19"
         style="stop-color:#808080;stop-opacity:1;" />
    </linearGradient>
    <linearGradient
       id="lg6"
       y2="211.85001"
       x2="69.607002"
       gradientTransform="matrix(-1,0,0,1,258,0)"
       y1="190.21001"
       x1="47.965"
       gradientUnits="userSpaceOnUse">
      <stop
         stop-color="#ffc957"
         offset="0"
         id="stop20"
         style="stop-color:#ababab;stop-opacity:1;" />
      <stop
         stop-color="#ff6d00"
         offset="1"
         id="stop21"
         style="stop-color:#808080;stop-opacity:1;" />
    </linearGradient>
    <linearGradient
       id="lg7"
       y2="99.103996"
       x2="181.03"
       y1="99.103996"
       x1="17.169001"
       gradientUnits="userSpaceOnUse">
      <stop
         stop-color="#a2a2a2"
         offset="0"
         id="stop22" />
      <stop
         stop-color="#494949"
         offset="1"
         id="stop23" />
    </linearGradient>
    <linearGradient
       id="lg8"
       y2="149.45"
       x2="196.71001"
       y1="248.72"
       x1="196.71001"
       gradientUnits="userSpaceOnUse">
      <stop
         stop-color="#7c0000"
         offset="0"
         id="stop24"
         style="stop-color:#3e3e3e;stop-opacity:1;" />
      <stop
         stop-color="#cf0000"
         offset="1"
         id="stop25"
         style="stop-color:#686868;stop-opacity:1;" />
    </linearGradient>
    <linearGradient
       id="lg9"
       y2="99.098"
       x2="183.03"
       y1="99.098"
       x1="15.168"
       gradientUnits="userSpaceOnUse">
      <stop
         stop-color="#494949"
         offset="0"
         id="stop26" />
      <stop
         stop-color="#616161"
         offset="0.5"
         id="stop27" />
      <stop
         stop-color="#000"
         offset="1"
         id="stop28" />
    </linearGradient>
  </defs>
  <g
     id="g38"
     transform="matrix(0.07089358,0,0,0.07089358,-1.0752961,-1.0754113)">
    <path
       fill="url(#lg9)"
       d="m 39.521,39.521 v 0 c -32.471,32.472 -32.471,85.309 0,117.78 14.105,14.11 32.801,22.69 52.645,24.16 19.204,1.42 38.304,-3.92 54.024,-14.99 1.99,1.98 13.89,13.88 13.89,13.88 4.36,4.36 12.01,3.29 17.78,-2.49 3.4,-3.39 5.17,-7.43 5.17,-11.07 0,-2.55 -0.88,-4.91 -2.68,-6.71 0,0 -11.9,-11.9 -13.88,-13.89 9.89,-14.04 15.22,-30.78 15.22,-47.88 0,-2.045 -0.1,-4.095 -0.23,-6.146 C 179.99,72.323 171.41,53.627 157.3,39.521 124.83,7.052 71.994,7.052 39.52,39.522 Z"
       id="path28"
       style="fill:url(#lg9)" />
    <path
       fill="url(#lg8)"
       d="m 160.18,160.19 c -4.95,4.95 -7.6,11 -7.6,16.36 0,3.14 0.91,6.05 2.82,8.36 l 0.1,0.1 v 0.15 l 52.13,52.13 c 6.03,6.03 17.27,4.25 25.57,-4.05 8.3,-8.31 10.08,-19.54 4.05,-25.57 l -52.19,-52.19 h -0.12 c -6.22,-5.18 -16.87,-3.14 -24.77,4.76 z"
       id="path29"
       style="fill:url(#lg8)" />
    <path
       fill="url(#lg7)"
       d="M 42.35,42.35 C 27.4,57.301 19.167,77.211 19.167,98.412 c 0,21.198 8.233,41.108 23.183,56.058 13.429,13.43 31.225,21.6 50.112,23 18.828,1.4 37.578,-4 52.798,-15.19 l 1.38,-1.02 16.27,16.27 c 2.75,2.74 7.96,1.67 12.13,-2.49 4.16,-4.17 5.23,-9.38 2.49,-12.13 l -16.27,-16.27 1.02,-1.38 c 11.19,-15.22 16.59,-33.97 15.19,-52.798 -1.4,-18.888 -9.57,-36.685 -23,-50.112 -30.91,-30.912 -81.207,-30.912 -112.12,0 z"
       id="path30"
       style="fill:url(#lg7)" />
    <path
       fill="url(#lg6)"
       d="m 181.85,160.04 51.5,51.5 c 3.79,3.79 1.97,11.74 -4.05,17.76 -6.02,6.03 -13.97,7.84 -17.76,4.05 l -51.5,-51.5 z"
       id="path31"
       style="fill:url(#lg6)" />
    <path
       fill="url(#lg5)"
       d="m 181.08,162.14 50.19,50.2 c 3.69,3.69 2.83,10.53 -1.92,15.28 -4.75,4.75 -11.59,5.61 -15.28,1.92 l -50.2,-50.19 z"
       id="path32"
       style="fill:url(#lg5)" />
    <path
       fill="url(#lg4)"
       d="m 181.85,160.04 c 3.78,3.79 1.97,11.74 -4.05,17.76 -6.02,6.02 -13.97,7.83 -17.76,4.05 -3.78,-3.79 -1.97,-11.73 4.05,-17.76 6.02,-6.02 13.97,-7.83 17.76,-4.05 z"
       id="path33"
       style="fill:url(#lg4)" />
    <path
       fill="url(#lg3)"
       d="m 43.43,153.4 c -30.367,-30.37 -30.367,-79.607 0,-109.97 30.365,-30.367 79.6,-30.367 109.97,0 28.26,28.259 30.21,72.852 5.87,103.38 l 17.18,17.18 c 2.06,2.06 0.95,6.52 -2.49,9.97 -3.44,3.44 -7.91,4.55 -9.97,2.49 L 146.81,159.27 C 116.28,183.61 71.688,181.66 43.43,153.4 Z"
       id="path34"
       style="fill:url(#lg3)" />
    <path
       fill="url(#lg2)"
       d="m 159.18,149.77 c 0,0 17.21,17.21 18.19,18.18 -0.31,0.76 -1.16,2.21 -2.85,3.9 -1.7,1.7 -3.15,2.55 -3.9,2.85 -0.98,-0.98 -18.18,-18.19 -18.18,-18.19 z"
       id="path35"
       style="fill:url(#lg2)" />
    <path
       fill="url(#lg1)"
       d="m 148.41,48.412 c 27.57,27.57 27.57,72.428 0,99.998 -27.57,27.57 -72.428,27.57 -99.998,0 -27.568,-27.57 -27.568,-72.428 0,-99.998 27.57,-27.569 72.428,-27.569 99.998,0 z"
       id="path36"
       style="fill:url(#lg1)" />
    <path
       fill="url(#rg2)"
       d="m 145.92,50.905 c 26.2,26.195 26.2,68.815 0,95.015 -26.2,26.2 -68.818,26.2 -95.014,0 -26.197,-26.2 -26.195,-68.82 0,-95.015 26.196,-26.196 68.814,-26.196 95.014,0 z"
       id="path37"
       style="fill:url(#rg2)" />
    <path
       fill="url(#rg1)"
       d="m 53.735,53.733 v 0 C 41.821,65.647 35.26,81.515 35.259,98.412 c 0,16.898 6.562,32.768 18.477,44.678 24.635,24.64 64.724,24.64 89.354,0 24.64,-24.64 24.64,-64.721 0,-89.356 -24.64,-24.636 -64.72,-24.636 -89.355,0 z"
       id="path38"
       style="fill:url(#rg1)" />
  </g>
</svg>
