<?xml version="1.0" encoding="UTF-8" standalone="no"?>
<svg
   xml:space="preserve"
   width="53.761387"
   height="44.208237"
   overflow="visible"
   viewBox="0 0 215.04555 176.83295"
   version="1.1"
   id="svg15"
   sodipodi:docname="label-Ma préférence.svg"
   inkscape:version="1.4 (e7c3feb100, 2024-10-09)"
   xmlns:inkscape="http://www.inkscape.org/namespaces/inkscape"
   xmlns:sodipodi="http://sodipodi.sourceforge.net/DTD/sodipodi-0.dtd"
   xmlns="http://www.w3.org/2000/svg"
   xmlns:svg="http://www.w3.org/2000/svg"><sodipodi:namedview
     id="namedview15"
     pagecolor="#ffffff"
     bordercolor="#000000"
     borderopacity="0.25"
     inkscape:showpageshadow="2"
     inkscape:pageopacity="0.0"
     inkscape:pagecheckerboard="0"
     inkscape:deskcolor="#d1d1d1"
     inkscape:zoom="12.25"
     inkscape:cx="26.122449"
     inkscape:cy="22.938776"
     inkscape:window-width="1920"
     inkscape:window-height="999"
     inkscape:window-x="0"
     inkscape:window-y="0"
     inkscape:window-maximized="1"
     inkscape:current-layer="svg15" /><defs
     id="defs8"><linearGradient
       id="a"
       x1="127.9536"
       x2="127.9536"
       y1="47.326698"
       y2="212.98849"
       gradientUnits="userSpaceOnUse"><stop
         offset="0"
         stop-color="#090"
         id="stop1" /><stop
         offset="1"
         stop-color="#334966"
         id="stop2" /></linearGradient><linearGradient
       id="b"
       x1="127.9536"
       x2="127.9536"
       y1="77.207497"
       y2="307.60571"
       gradientUnits="userSpaceOnUse"><stop
         offset="0"
         stop-color="#3c3"
         id="stop3" /><stop
         offset="1"
         stop-color="#366"
         id="stop4" /></linearGradient><linearGradient
       id="c"
       x1="127.9536"
       x2="127.9536"
       y1="77.367203"
       y2="307.36261"
       gradientUnits="userSpaceOnUse"><stop
         offset=".0056"
         stop-color="#cf6"
         id="stop5" /><stop
         offset="1"
         stop-color="#090"
         id="stop6" /></linearGradient><radialGradient
       id="d"
       cx="54.2729"
       cy="89.347702"
       r="120.8132"
       fx="54.2729"
       fy="89.347702"
       gradientUnits="userSpaceOnUse"><stop
         offset="0"
         stop-color="#fff"
         id="stop7" /><stop
         offset="1"
         stop-color="#92ff00"
         id="stop8" /></radialGradient></defs><g
     id="g15"
     transform="translate(-23.431453,-41.641021)"><path
       d="m 221.848,47.811 c 0,0 -130.558,89.471 -132.578,90.855 C 87.581,136.983 47.491,97.071 47.491,97.071 44.513,94.103 40.6,93.003 37.024,94.128 c -3.89,1.232 -6.403,4.005 -7.08,7.809 l -0.42,2.363 c -0.135,0.765 -0.122,1.532 0.037,2.285 l 0.589,2.802 0.408,1.247 46.254,101.694 c 1.449,3.183 4.375,5.427 7.83,6.001 3.441,0.579 6.936,-0.598 9.349,-3.144 L 235.225,65.893 c 2.066,-2.169 3.252,-5.263 3.252,-8.481 l -0.129,-1.236 -0.572,-2.723 c -0.697,-3.33 -2.852,-5.804 -6.227,-7.157 -2.154,-0.865 -5.586,-1.305 -9.701,1.515 z"
       font-size="12px"
       opacity="0.2"
       id="path9" /><path
       d="m 218.848,47.811 c 0,0 -130.558,89.471 -132.578,90.855 C 84.581,136.983 44.491,97.071 44.491,97.071 41.513,94.103 37.6,93.003 34.024,94.128 c -3.89,1.232 -6.403,4.005 -7.08,7.809 l -0.42,2.363 c -0.135,0.765 -0.122,1.532 0.037,2.285 l 0.589,2.802 0.408,1.247 46.254,101.694 c 1.449,3.183 4.375,5.427 7.83,6.001 3.441,0.579 6.936,-0.598 9.349,-3.144 L 232.225,65.893 c 2.066,-2.169 3.252,-5.263 3.252,-8.481 l -0.129,-1.236 -0.572,-2.723 c -0.697,-3.33 -2.852,-5.804 -6.227,-7.157 -2.154,-0.865 -5.586,-1.305 -9.701,1.515 z"
       font-size="12px"
       opacity="0.2"
       id="path10" /><path
       d="m 217.848,45.811 c 0,0 -130.558,89.471 -132.578,90.855 C 83.581,134.983 43.491,95.071 43.491,95.071 40.513,92.103 36.6,91.003 33.024,92.128 c -3.89,1.232 -6.403,4.005 -7.08,7.809 l -0.42,2.363 c -0.135,0.765 -0.122,1.532 0.037,2.285 l 0.589,2.802 0.408,1.247 46.254,101.694 c 1.449,3.183 4.375,5.427 7.83,6.001 3.441,0.579 6.936,-0.598 9.349,-3.144 L 231.225,63.893 c 2.066,-2.169 3.252,-5.263 3.252,-8.481 l -0.129,-1.236 -0.572,-2.723 c -0.697,-3.33 -2.852,-5.804 -6.227,-7.157 -2.154,-0.865 -5.586,-1.305 -9.701,1.515 z"
       font-size="12px"
       opacity="0.2"
       id="path11" /><path
       fill="url(#a)"
       d="m 215.848,43.811 c 0,0 -130.558,89.471 -132.578,90.855 C 81.581,132.983 41.491,93.071 41.491,93.071 38.513,90.103 34.6,89.003 31.024,90.128 c -3.89,1.232 -6.403,4.005 -7.08,7.809 l -0.42,2.363 c -0.135,0.765 -0.122,1.532 0.037,2.285 l 0.589,2.802 0.408,1.247 46.254,101.694 c 1.449,3.183 4.375,5.427 7.83,6.001 3.441,0.579 6.936,-0.598 9.349,-3.144 L 229.225,61.893 c 2.066,-2.169 3.252,-5.263 3.252,-8.481 l -0.129,-1.236 -0.572,-2.723 c -0.697,-3.33 -2.852,-5.804 -6.227,-7.157 -2.154,-0.865 -5.586,-1.305 -9.701,1.515 z"
       font-size="12px"
       id="path12"
       style="fill:url(#a)" /><path
       fill="url(#b)"
       d="m 219.239,48.761 c 0,0 -135.454,92.824 -136.679,93.665 -5.106,-5.083 -45.302,-45.103 -45.302,-45.103 -1.187,-1.182 -2.833,-1.976 -4.431,-1.472 -1.597,0.505 -2.684,1.485 -2.977,3.135 l -0.42,2.364 0.589,2.802 c 0.007,0.016 46.252,101.691 46.252,101.691 0.621,1.363 1.876,2.321 3.354,2.567 1.477,0.247 2.978,-0.265 4.008,-1.353 L 224.865,57.77 c 1.021,-1.072 1.611,-2.665 1.611,-4.358 l -0.572,-2.728 c -0.309,-1.471 -1.192,-2.26 -2.588,-2.82 -1.394,-0.559 -2.839,0.049 -4.077,0.897 z"
       font-size="12px"
       id="path13"
       style="fill:url(#b)" /><path
       fill="url(#c)"
       d="m 84.485,146.561 c -1.425,0.977 -3.344,0.803 -4.567,-0.416 0,0 -44.921,-44.724 -45.833,-45.632 -0.091,0.252 -0.154,0.533 -0.154,0.838 0,0.328 0.06,0.662 0.192,0.955 0,0 46.096,101.347 46.241,101.664 0.877,-0.93 141.232,-149.292 141.232,-149.292 0.232,-0.243 0.381,-0.741 0.381,-1.266 0,-0.322 -0.074,-0.645 -0.2,-0.935 -1.026,0.7 -137.292,94.084 -137.292,94.084 z"
       font-size="12px"
       id="path14"
       style="fill:url(#c)" /><path
       fill="url(#d)"
       d="m 86.517,149.525 c -10e-4,0 -10e-4,0.004 -10e-4,0.004 -2.848,1.947 -6.69,1.596 -9.133,-0.838 0,0 -20.052,-19.966 -33.287,-33.141 10.589,23.282 30.678,67.45 37.327,82.069 6.078,-6.424 93.826,-99.178 119.981,-126.826 -31.378,21.504 -114.887,78.732 -114.887,78.732 z"
       font-size="12px"
       id="path15"
       style="fill:url(#d)" /></g></svg>
