<?xml version="1.0" encoding="UTF-8" standalone="no"?>
<svg
   id="Layer_1"
   data-name="Layer 1"
   viewBox="0 0 128.98016 124.34004"
   version="1.1"
   sodipodi:docname="label-Fréquence diminuée.svg"
   width="128.98016"
   height="124.34004"
   inkscape:version="1.4 (e7c3feb100, 2024-10-09)"
   xmlns:inkscape="http://www.inkscape.org/namespaces/inkscape"
   xmlns:sodipodi="http://sodipodi.sourceforge.net/DTD/sodipodi-0.dtd"
   xmlns="http://www.w3.org/2000/svg"
   xmlns:svg="http://www.w3.org/2000/svg"
   xmlns:rdf="http://www.w3.org/1999/02/22-rdf-syntax-ns#"
   xmlns:cc="http://creativecommons.org/ns#"
   xmlns:dc="http://purl.org/dc/elements/1.1/">
  <sodipodi:namedview
     id="namedview3"
     pagecolor="#ffffff"
     bordercolor="#000000"
     borderopacity="0.25"
     inkscape:showpageshadow="2"
     inkscape:pageopacity="0.0"
     inkscape:pagecheckerboard="0"
     inkscape:deskcolor="#d1d1d1"
     inkscape:zoom="3.3819342"
     inkscape:cx="64.164465"
     inkscape:cy="62.390333"
     inkscape:window-width="1920"
     inkscape:window-height="999"
     inkscape:window-x="0"
     inkscape:window-y="0"
     inkscape:window-maximized="1"
     inkscape:current-layer="Layer_1" />
  <defs
     id="defs1">
    <style
       id="style1">.cls-1{fill:#fff;}.cls-2{fill:#4267b2;}.cls-3{fill:#32363b;}</style>
  </defs>
  <title
     id="title1">Thumb-Icon-RGB-BRC-Site-300</title>
  <g
     id="g1"
     transform="matrix(1,0,0,-1,0,124.34004)">
    <path
       class="cls-1"
       d="m 117.81,82.390043 -3.71,1.15 2.34,3.11 a 8.08,8.08 0 0 1 -5.12,12.82 l -3.72,0.619997 1.78,3.38 a 8.08,8.08 0 0 1 -6.67,11.79 H 55.98 a 17.35,17.35 0 0 1 -9.93,-3.63 10.64,10.64 0 0 0 -2.59,-1.7 l -1,-0.46 V 66.290043 l 4.87,-4.17 16.44,-30.48 a 13.5,13.5 0 0 0 1.93,-8.07 L 64.38,6.4700427 a 7.49,7.49 0 0 1 3.73,-1 c 7.1,0 13.18,11.3400003 13.18,20.6300003 a 26.16,26.16 0 0 1 -0.29,3.85 l -2.87,18.52 h 35.64 a 8.76,8.76 0 0 1 6.17,2.61 7.77,7.77 0 0 1 2.35,5.55 8,8 0 0 1 -3.22,6.4 l -3.31,2.51 3.62,2.05 a 8.11,8.11 0 0 1 -1.57,14.8 z"
       id="path1" />
    <path
       class="cls-2"
       d="m 2.91,57.790043 a 0.17,0.17 0 0 0 -0.17,0.16 v 63.519997 a 0.17,0.17 0 0 0 0.17,0.16 H 39.5 a 0.18,0.18 0 0 0 0.18,-0.16 V 57.950043 a 0.18,0.18 0 0 0 -0.18,-0.16 z"
       id="path2"
       style="fill:#b9b9b9;fill-opacity:1" />
    <path
       class="cls-3"
       d="m 128.98,74.650043 a 13.62,13.62 0 0 0 -4.1,-9.71 13.39,13.39 0 0 0 2.89,-8.27 13.23,13.23 0 0 0 -3.94,-9.45 14.29,14.29 0 0 0 -10.06,-4.23 H 84.51 l 1.87,-12.2 a 31.85,31.85 0 0 0 0.35,-4.68 C 86.73,14.030043 78.58,4.2713022e-5 68.07,4.2713022e-5 A 13,13 0 0 0 59.73,3.0000427 l -1.08,0.9 1.53,20.0600003 a 8.24,8.24 0 0 1 -0.21,2.53 7.68,7.68 0 0 1 -1,2.33 l -16.07,29.78 -0.6,0.52 a 5.63,5.63 0 0 0 -5.56,-4.81 H 5.63 a 5.63,5.63 0 0 0 -5.63,5.63 v 58.779997 a 5.63,5.63 0 0 0 5.63,5.62 h 31.16 a 5.63,5.63 0 0 0 5.63,-5.62 v -3 0 a 22.78,22.78 0 0 0 13.47,4.94 v 0 h 46.81 0.15 a 13.61,13.61 0 0 0 12.53,-16.67 13.57,13.57 0 0 0 7.14,-17.749997 13.51,13.51 0 0 0 6.46,-11.59 z m -92,44.089997 a 0.17,0.17 0 0 1 -0.15,0.15 H 5.63 a 0.17,0.17 0 0 1 -0.16,-0.15 V 59.960043 a 0.16,0.16 0 0 1 0.16,-0.15 h 31.16 a 0.16,0.16 0 0 1 0.15,0.15 v 58.779997 z m 80.87,-36.349997 -3.71,1.15 2.34,3.11 a 8.08,8.08 0 0 1 -5.16,12.82 l -3.72,0.619997 1.78,3.38 a 8.08,8.08 0 0 1 -6.67,11.79 H 55.98 a 17.35,17.35 0 0 1 -9.93,-3.63 10.64,10.64 0 0 0 -2.59,-1.7 l -1,-0.46 V 66.290043 l 4.87,-4.17 16.44,-30.48 a 13.5,13.5 0 0 0 1.93,-8.07 L 64.38,6.4700427 a 7.49,7.49 0 0 1 3.73,-1 c 7.1,0 13.18,11.3400003 13.18,20.6300003 a 26.16,26.16 0 0 1 -0.29,3.85 l -2.87,18.52 h 35.64 a 8.76,8.76 0 0 1 6.17,2.61 7.77,7.77 0 0 1 2.35,5.55 8,8 0 0 1 -3.22,6.4 l -3.31,2.51 3.62,2.05 a 8.11,8.11 0 0 1 -1.57,14.8 z"
       id="path3" />
  </g>
  <metadata
     id="metadata3">
    <rdf:RDF>
      <cc:Work
         rdf:about="">
        <dc:title>Thumb-Icon-RGB-BRC-Site-300</dc:title>
      </cc:Work>
    </rdf:RDF>
  </metadata>
</svg>
