<?xml version="1.0" encoding="UTF-8" standalone="no"?>
<!-- Created with Inkscape (http://www.inkscape.org/) -->

<svg
   version="1.0"
   width="470"
   height="470"
   id="svg24159"
   sodipodi:version="0.32"
   inkscape:version="1.4 (e7c3feb100, 2024-10-09)"
   sodipodi:docname="label-Pirate.svg"
   inkscape:output_extension="org.inkscape.output.svg.inkscape"
   xmlns:inkscape="http://www.inkscape.org/namespaces/inkscape"
   xmlns:sodipodi="http://sodipodi.sourceforge.net/DTD/sodipodi-0.dtd"
   xmlns="http://www.w3.org/2000/svg"
   xmlns:svg="http://www.w3.org/2000/svg"
   xmlns:rdf="http://www.w3.org/1999/02/22-rdf-syntax-ns#"
   xmlns:cc="http://creativecommons.org/ns#"
   xmlns:dc="http://purl.org/dc/elements/1.1/">
  <metadata
     id="metadata43">
    <rdf:RDF>
      <cc:Work
         rdf:about="">
        <dc:format>image/svg+xml</dc:format>
        <dc:type
           rdf:resource="http://purl.org/dc/dcmitype/StillImage" />
      </cc:Work>
    </rdf:RDF>
  </metadata>
  <sodipodi:namedview
     inkscape:window-height="999"
     inkscape:window-width="1920"
     inkscape:pageshadow="2"
     inkscape:pageopacity="0.0"
     guidetolerance="10.0"
     gridtolerance="10.0"
     objecttolerance="10.0"
     borderopacity="1.0"
     bordercolor="#666666"
     pagecolor="#ffffff"
     id="base"
     showgrid="false"
     inkscape:zoom="0.86775695"
     inkscape:cx="243.15564"
     inkscape:cy="227.02209"
     inkscape:window-x="0"
     inkscape:window-y="0"
     inkscape:current-layer="svg24159"
     inkscape:showpageshadow="2"
     inkscape:pagecheckerboard="0"
     inkscape:deskcolor="#d1d1d1"
     inkscape:window-maximized="1" />
  <defs
     id="defs24161">
    <inkscape:perspective
       sodipodi:type="inkscape:persp3d"
       inkscape:vp_x="0 : 199.99997 : 1"
       inkscape:vp_y="0 : 1000 : 0"
       inkscape:vp_z="400 : 199.99997 : 1"
       inkscape:persp3d-origin="200 : 133.3333 : 1"
       id="perspective45" />
  </defs>
  <path
     id="rect2476"
     d="M 0,0 H 470 V 470.00001 H 0 Z"
     style="fill:#000000;fill-opacity:1;stroke-width:0.791623" />
  <g
     id="g1"
     transform="matrix(1.2414579,0,0,1.2414579,-230.54671,-56.742622)">
    <path
       d="m 372.84923,228.47347 c -6.32179,4.80719 -7.72815,6.42154 -11.22156,11.7412 -1.26423,2.05315 -3.62511,6.85121 -4.27059,10.07012 -0.64483,3.21827 -1.12796,7.88789 -1.12601,10.36092 0.008,8.38014 2.67516,13.63721 5.58829,13.454 2.60278,-0.29862 5.91493,-3.01289 10.93402,-9.17754"
       style="font-size:12px;fill:#000000;fill-opacity:1;fill-rule:evenodd;stroke:#000000;stroke-width:0.651999pt;stroke-linecap:butt;stroke-linejoin:miter;stroke-opacity:0.991228"
       id="path584" />
    <path
       d="m 377.40148,228.60915 c 6.32179,4.80719 7.72815,6.42154 11.22156,11.7412 1.26423,2.05315 3.62511,6.85121 4.27059,10.07012 0.64483,3.21827 1.12796,7.88789 1.12601,10.36092 -0.008,8.38014 -2.67516,13.63721 -5.58829,13.454 -2.60278,-0.29862 -5.91493,-3.01289 -10.93402,-9.17754"
       style="font-size:12px;fill:#000000;fill-opacity:1;fill-rule:evenodd;stroke:#000000;stroke-width:0.651999pt;stroke-linecap:butt;stroke-linejoin:bevel;stroke-opacity:0.991228"
       id="path585" />
    <path
       d="m 319.11259,191.86371 c 8.77591,-1.53807 17.27993,-2.53302 26.05584,-3.52797 11.49018,-2.89553 17.28058,10.22335 14.11382,20.08483 -3.98045,8.77591 -9.5896,16.46624 -16.01309,23.88468 -4.97606,5.60915 -10.90403,6.51673 -16.55687,4.61355 -4.56268,-1.26488 -8.77655,-4.07043 -13.30012,-10.58456 -1.9899,-5.6098 -3.70857,-8.50532 -6.24224,-15.47128 -1.9899,-6.42349 1.10514,-16.03918 11.94266,-18.99925 z"
       style="font-size:12px;fill:#000000;fill-opacity:1;fill-rule:evenodd;stroke:#000000;stroke-width:0.651999pt;stroke-linecap:butt;stroke-linejoin:miter;stroke-opacity:0.991228"
       id="path586" />
    <path
       d="m 431.30994,191.86371 c -8.77591,-1.53807 -17.27993,-2.53302 -26.05584,-3.52797 -11.49018,-2.89553 -17.28058,10.22335 -14.11382,20.08483 3.98045,8.77591 9.5896,16.46624 16.01309,23.88468 4.97606,5.60915 10.90403,6.51673 16.55687,4.61355 4.56268,-1.26488 8.77655,-4.07043 13.30012,-10.58456 1.9899,-5.6098 3.70857,-8.50532 6.24224,-15.47128 1.9899,-6.42349 -1.10514,-16.03918 -11.94266,-18.99925 z"
       style="font-size:12px;fill:#000000;fill-opacity:1;fill-rule:evenodd;stroke:#000000;stroke-width:0.651999pt;stroke-linecap:butt;stroke-linejoin:miter;stroke-opacity:0.991228"
       id="path587" />
    <path
       style="fill:#ffffff;fill-opacity:1"
       d="m 353.87446,290.76832 c -1.19048,-0.2194 -4.18959,-0.79538 -6.6647,-1.27997 l -4.50019,-0.88105 -0.5741,-4.06058 c -1.71382,-12.12154 -10.24676,-20.65862 -25.75687,-25.76932 -12.74433,-4.19938 -16.03502,-6.64797 -18.77468,-13.97038 -3.03025,-8.09913 -3.12485,-14.82317 -0.39989,-28.42927 1.91803,-9.57699 2.43405,-14.59524 2.4888,-24.20327 0.0657,-11.5264 -0.0727,-12.54608 -2.82032,-20.77922 -3.50806,-10.51192 -4.29153,-22.37842 -1.66924,-25.28325 1.44181,-1.59717 1.36838,-1.79424 -1.83434,-4.92162 l -3.33629,-3.25781 -1.84242,2.3422 c -4.55529,5.79115 -4.64387,19.34981 -0.21813,33.39732 1.40578,4.46202 2.82121,10.17075 3.14541,12.68607 0.69317,5.37791 -0.2846,16.84108 -1.37879,16.16483 -1.22329,-0.75604 -6.76994,-11.08926 -8.98113,-16.73156 -6.12799,-15.63673 -7.7875,-35.42683 -4.09942,-48.88666 6.3,-22.9922 22.2003,-40.412976 44.94757,-49.245772 20.13823,-7.819706 51.97169,-11.316147 73.74388,-8.099706 19.34293,2.857567 39.41163,9.210572 48.20333,15.25942 15.1544,10.426558 27.1879,28.857628 30.7768,47.139308 1.6663,8.48845 1.4309,26.24795 -0.442,33.33333 -1.6631,6.29151 -8.1303,19.87038 -11.3025,23.73123 l -2.0697,2.51909 -0.6227,-4.15242 c -0.9503,-6.33724 0.1211,-15.75955 2.6114,-22.9637 3.2046,-9.27088 4.5548,-20.92504 3.1509,-27.19821 -0.6033,-2.69557 -2.0114,-5.95793 -3.1293,-7.24968 l -2.0325,-2.34864 -3.0858,2.97676 c -2.9048,2.80207 -3.01,3.09241 -1.7943,4.94788 0.8896,1.35779 1.2915,4.26738 1.2915,9.35056 0,6.01456 -0.5204,8.94262 -2.8138,15.83132 -2.6424,7.93683 -2.8131,9.19063 -2.8008,20.57313 0.01,9.65134 0.5196,14.82247 2.499,25.37799 2.2701,12.10548 2.398,13.78908 1.4738,19.38583 -1.2829,7.76773 -3.8713,13.81504 -6.8533,16.01106 -1.2801,0.94263 -5.0547,2.76169 -8.388,4.04238 -20.9957,8.0667 -28.60926,14.61568 -31.08155,26.73563 l -1.08425,5.31544 -4.69636,1.20414 c -4.61524,1.18333 -44.32609,2.30103 -49.28502,1.38716 z m 11.08197,-17.1191 c 1.28586,-0.66507 3.58919,-2.76643 5.11849,-4.66968 l 2.78052,-3.46047 0.2498,-18.70772 c 0.16921,-12.676 -0.0441,-18.70749 -0.66157,-18.70694 -2.1763,0.002 -10.05019,9.13143 -12.96884,15.0369 -2.62129,5.30379 -3.1698,7.44845 -3.59886,14.07091 -0.52666,8.12898 0.41063,13.16197 3.00404,16.13109 1.59943,1.83115 2.99194,1.90125 6.07641,0.30592 z m 27.35929,-1.66978 c 1.59422,-2.14444 1.81848,-3.64494 1.81848,-12.16727 0,-9.47079 -0.0828,-9.88861 -3.21387,-16.22283 -2.87587,-5.81791 -10.99382,-15.48413 -13.00398,-15.48413 -0.36587,0 -0.66527,8.40262 -0.66527,18.67249 v 18.67249 l 2.3743,3.11282 c 2.81878,3.69566 6.938,6.41616 9.22715,6.09401 0.90461,-0.1273 2.46305,-1.33222 3.4632,-2.67758 z m -54.63666,-34.65311 c 5.22,-2.18106 17.14512,-17.17167 21.51017,-27.03958 3.58048,-8.09425 0.42195,-19.27352 -6.22307,-22.02598 -2.31505,-0.95892 -4.5314,-0.96887 -12.84941,-0.0577 -17.02459,1.86494 -23.55916,3.28146 -27.27826,5.91316 -7.43074,5.25813 -8.37917,12.13217 -3.40453,24.67563 3.41613,8.61366 5.67354,11.91375 10.58312,15.47124 5.75783,4.17212 12.29465,5.30582 17.662,3.0632 z m 91.00568,-1.76828 c 2.0977,-1.22932 4.9927,-3.72347 6.4335,-5.54256 2.6366,-3.3289 9.6695,-19.70218 9.6605,-22.49045 -0.02,-6.26607 -4.786,-13.11503 -10.6416,-15.29322 -4.1228,-1.53358 -17.6092,-3.65286 -28.64294,-4.50098 l -7.41585,-0.57004 -3.40406,3.40404 c -3.89826,3.89828 -5.747,9.30164 -4.9302,14.40963 1.40168,8.76574 15.56015,29.01174 22.57195,32.2769 3.9198,1.82533 11.7461,1.01571 16.3687,-1.69333 z"
       id="path2418" />
    <path
       style="fill:#ffffff;fill-opacity:1"
       d="m 357.43548,352.30898 c -12.71906,-2.75936 -18.71648,-6.1185 -25.97739,-14.54989 -8.19069,-9.51106 -10.91442,-18.63694 -10.24471,-34.32508 0.53519,-12.53727 -0.23415,-18.43529 -3.70679,-28.41657 -3.08438,-8.86531 -1.44741,-9.15872 1.94354,-0.34836 3.69396,9.59769 6.66177,20.58923 7.99346,29.60459 l 1.21822,8.24712 4.45267,4.02888 c 10.02007,9.06634 20.87488,12.22601 42.405,12.34343 16.2153,0.0884 21.92078,-0.9926 32.66788,-6.18972 8.27778,-4.00292 12.87688,-8.9271 13.67008,-14.6362 2.3157,-16.66745 9.1496,-38.90084 12.2672,-39.91077 0.6223,-0.20154 0.029,2.60838 -1.4998,7.10315 -3.4565,10.16246 -4.1813,15.62741 -3.6454,27.48727 0.8069,17.85491 -2.3731,26.92333 -13.1787,37.58158 -5.26178,5.19004 -7.32775,6.57815 -13.0913,8.79587 -3.76399,1.44831 -9.15546,3.05825 -11.98101,3.57767 -7.05066,1.29609 -26.56924,1.06572 -33.29295,-0.39296 z"
       id="path2420" />
    <path
       style="fill:#ffffff;fill-opacity:1"
       d="m 276.18878,279.46738 c -38.85656,-18.92467 -37.32597,-18.46589 -54.87521,-16.44791 -7.35188,0.84539 -13.58493,0.005 -17.1173,-2.30777 -2.13401,-1.39724 0.63031,-5.80865 8.39276,-13.39348 7.16821,-7.0042 7.2565,-7.19957 8.20483,-18.15641 0.34201,-3.95153 1.17477,-8.359 1.85056,-9.79436 3.00913,-6.3913 10.20068,-2.18158 16.67672,9.76211 2.45964,4.53633 5.91918,9.76949 7.6878,11.62921 2.13407,2.24397 12.86906,8.22448 31.91489,17.77981 l 28.69921,14.39846 2.57458,8.56352 c 2.51547,8.36677 3.33767,15.21689 1.81248,15.10029 -0.4192,-0.032 -16.53878,-7.74211 -35.82132,-17.13346 z"
       id="path2422" />
    <path
       style="fill:#ffffff;fill-opacity:1"
       d="m 494.19264,388.86101 c -2.7073,-2.02 -5.4233,-5.5523 -7.8059,-10.1526 -6.2611,-12.08816 -8.9268,-14.24004 -33.4304,-26.9873 -12.1494,-6.32031 -22.2983,-11.83399 -22.5534,-12.2526 -0.255,-0.41862 0.6539,-3.88444 2.0197,-7.70187 1.3658,-3.81743 2.4832,-7.84755 2.4832,-8.95584 0,-1.10828 0.1624,-2.01508 0.3609,-2.01508 0.1986,0 11.0594,5.03325 24.135,11.18501 29.2322,13.75289 30.0906,14.05098 37.3849,12.9803 3.1334,-0.45991 9.1939,-0.86589 13.4679,-0.90217 6.2767,-0.0533 8.1819,0.31166 9.9081,1.89806 1.1753,1.0802 2.1371,2.41875 2.1371,2.97455 0,0.5558 -3.8738,4.77537 -8.6082,9.37683 l -8.6083,8.36629 -0.9957,9.54794 c -0.9773,9.37255 -2.6018,14.70317 -4.6897,15.38986 -0.5792,0.19052 -2.9215,-1.04759 -5.2052,-2.75138 z"
       id="path2426" />
    <path
       style="fill:#ffffff;fill-opacity:1"
       d="m 249.23801,388.68925 c -0.5244,-0.98187 -1.53039,-6.37225 -2.23553,-11.97861 l -1.28206,-10.19336 -8.59876,-8.92905 c -5.37573,-5.58218 -8.47132,-9.5905 -8.25863,-10.69373 0.64047,-3.32214 4.82234,-4.52277 13.08706,-3.75728 4.21242,0.39016 10.87572,0.74301 14.80734,0.7841 8.5115,0.089 14.31598,-2.09185 40.61593,-15.25995 9.42064,-4.7168 17.34766,-8.57602 17.61562,-8.57602 0.26799,0 0.48721,0.89187 0.48721,1.98191 0,1.09005 1.2084,5.23859 2.68533,9.219 1.47696,3.98041 2.5109,7.37969 2.29769,7.55397 -0.21318,0.17426 -10.96057,5.87618 -23.88305,12.67092 l -23.49543,12.35406 -7.46276,11.24297 c -9.53205,14.36045 -13.98968,18.05642 -16.37994,13.58107 z"
       id="path2424" />
    <path
       style="fill:#ffffff;fill-opacity:1"
       d="m 437.47724,292.47294 c 0.3291,-2.77664 1.6758,-8.18533 2.9925,-12.01931 l 2.3939,-6.97083 29.1343,-14.42625 c 32.2979,-15.99272 32.1227,-15.85974 39.0623,-29.66607 4.6441,-9.23953 12.2008,-15.37543 14.914,-12.10973 1.4249,1.71512 4.0891,14.13822 4.1125,19.17634 0.016,3.36682 1.042,4.92525 8.6586,13.14707 9.6161,10.38014 9.9658,12.11891 2.8355,14.09705 -4.9951,1.3858 -9.8387,1.34448 -18.6147,-0.15886 -5.4548,-0.93444 -8.2268,-0.94864 -11.5558,-0.0592 -2.4084,0.64355 -17.6842,7.45267 -33.9457,15.13138 -16.2616,7.67873 -32.0458,15.07406 -35.0761,16.43409 l -5.5099,2.47278 z"
       id="path2428" />
    <path
       style="fill:#ffffff;fill-opacity:1"
       d="m 334.49088,311.78801 c -1.61347,-1.76842 -1.52653,-1.51571 -2.12788,-6.18486 -0.65157,-5.05917 -1.70776,-10.61103 -2.91312,-15.31297 -1.06769,-4.16485 -3.88783,-12.92618 -5.4171,-16.82929 -0.44377,-1.13259 -0.76351,-2.1059 -0.71055,-2.16291 0.20169,-0.21713 4.63104,3.17872 5.64083,4.32465 2.93349,3.32901 4.33008,6.51274 4.56415,10.40467 l 0.15305,2.54473 1.27845,0.69582 1.27846,0.69581 -0.0966,11.17423 c -0.0531,6.14581 -0.12158,11.41188 -0.15218,11.70236 -0.0436,0.41402 -0.36722,0.18663 -1.49755,-1.05224 z"
       id="path2479" />
    <path
       style="fill:#ffffff;fill-opacity:1"
       d="m 344.03253,303.70597 c -0.52854,-0.25407 -1.73321,-0.87906 -2.67703,-1.38886 l -1.71604,-0.92691 v -4.93597 c 0,-4.56862 0.0358,-4.92607 0.48049,-4.80281 0.26427,0.0733 1.49982,0.41593 2.74567,0.76152 l 2.26517,0.62835 v 5.58554 c 0,3.07205 -0.0309,5.57554 -0.0686,5.56332 -0.0377,-0.0122 -0.50108,-0.2301 -1.02962,-0.48418 z"
       id="path2481" />
    <path
       style="fill:#ffffff;fill-opacity:1"
       d="m 342.65969,318.02839 c -0.98157,-0.55117 -2.08258,-1.23136 -2.44668,-1.51155 l -0.662,-0.50942 0.0648,-5.14021 c 0.0357,-2.82711 0.0974,-5.17276 0.13722,-5.21256 0.0398,-0.0398 1.20184,0.45341 2.58232,1.09601 l 2.50997,1.16837 0.005,5.55998 c 0.003,3.05798 -0.0872,5.55807 -0.2005,5.55574 -0.11326,-0.002 -1.00903,-0.45519 -1.99061,-1.00636 z"
       id="path2483" />
    <path
       style="fill:#ffffff;fill-opacity:1"
       d="m 351.99497,321.94001 c -1.13259,-0.34707 -2.39903,-0.76805 -2.81431,-0.93553 l -0.75506,-0.3045 v -5.63542 c 0,-3.09948 0.0793,-5.63541 0.17632,-5.63541 0.097,0 0.99275,0.23855 1.99061,0.53011 0.99785,0.29157 2.3394,0.66699 2.9812,0.83428 l 1.1669,0.30417 v 3.65464 c 0,3.98241 -0.25812,7.86694 -0.52078,7.83734 -0.0911,-0.0103 -1.0923,-0.30262 -2.22488,-0.64968 z"
       id="path2485" />
    <path
       style="fill:#ffffff;fill-opacity:1"
       d="m 354.05422,307.30969 c -0.30203,-0.0736 -1.7083,-0.50271 -3.12505,-0.95361 l -2.57592,-0.81983 0.12725,-5.74097 c 0.07,-3.15753 0.18322,-5.79696 0.25165,-5.86539 0.0684,-0.0684 1.44833,0.0762 3.06645,0.3214 l 2.94203,0.44581 v 6.40504 c 0,3.52277 -0.0309,6.3907 -0.0686,6.37319 -0.0377,-0.0175 -0.31575,-0.0921 -0.61777,-0.16564 z"
       id="path2487" />
    <path
       style="fill:#ffffff;fill-opacity:1"
       d="m 360.91839,308.56879 c -1.05708,-0.13296 -2.07641,-0.29879 -2.26518,-0.3685 -0.26125,-0.0965 -0.34321,-1.66957 -0.34321,-6.58768 v -6.46094 h 2.17408 c 1.19575,0 2.36952,0.075 2.60839,0.16666 0.37961,0.14567 0.4343,1.0102 0.4343,6.86417 0,5.19349 -0.0771,6.68971 -0.3432,6.66278 -0.18877,-0.0191 -1.2081,-0.14352 -2.26518,-0.27649 z"
       id="path2489" />
    <path
       style="fill:#ffffff;fill-opacity:1"
       d="m 360.71246,323.77049 -2.67702,-0.42102 v -4.17421 c 0,-2.29583 0.0764,-4.90484 0.1697,-5.79781 l 0.1697,-1.62359 1.95818,0.23506 c 1.07702,0.12929 2.2362,0.28813 2.57598,0.353 l 0.61777,0.11792 v 5.89796 c 0,3.24387 -0.0309,5.8835 -0.0686,5.86582 -0.0377,-0.0177 -1.2733,-0.22158 -2.74567,-0.45314 z"
       id="path2491" />
    <path
       style="fill:#ffffff;fill-opacity:1"
       d="m 368.40034,324.60307 -1.3042,-0.10283 v -5.88815 -5.88814 h 3.29481 3.2948 v 6.04047 6.04047 l -1.99061,-0.0495 c -1.09484,-0.0272 -2.5775,-0.0958 -3.2948,-0.15233 z"
       id="path2493" />
    <path
       style="fill:#ffffff;fill-opacity:1"
       d="m 367.09614,302.29041 v -6.86418 h 3.29481 3.2948 v 6.86418 6.86417 h -3.2948 -3.29481 z"
       id="path2495" />
    <path
       style="fill:#ffffff;fill-opacity:1"
       d="m 376.98055,302.33069 v -6.90446 h 3.02024 3.02023 v 6.72689 6.72689 h -0.91955 c -0.50576,0 -1.86487,0.0799 -3.02024,0.17757 l -2.10068,0.17757 z"
       id="path2497" />
    <path
       style="fill:#ffffff;fill-opacity:1"
       d="m 377.18648,324.92622 c -0.11326,-0.11707 -0.20593,-2.89503 -0.20593,-6.17324 v -5.96039 l 0.85802,-0.17161 c 0.47191,-0.0944 1.81203,-0.1716 2.97804,-0.1716 h 2.12002 l 0.17948,3.33791 c 0.0987,1.83585 0.17948,4.61584 0.17948,6.17775 v 2.83985 l -1.16691,0.002 c -0.6418,10e-4 -1.97002,0.0763 -2.95159,0.1671 -0.98158,0.0908 -1.87735,0.0694 -1.99061,-0.0477 z"
       id="path2499" />
    <path
       style="fill:#ffffff;fill-opacity:1"
       d="m 391.88194,320.41182 c 0,-0.67955 0.0535,-0.95755 0.11899,-0.61777 0.0654,0.33977 0.0655,0.89577 0,1.23555 -0.0654,0.33977 -0.11899,0.0618 -0.11899,-0.61778 z"
       id="path2501" />
    <path
       style="fill:#ffffff;fill-opacity:1"
       d="m 386.59039,301.94045 v -6.71326 l 2.3629,-0.19173 c 1.29959,-0.10545 2.40169,-0.15293 2.44911,-0.10551 0.0474,0.0474 0.17544,3.00382 0.2845,6.56978 l 0.19829,6.48356 -1.61777,0.18182 c -0.88978,0.1 -2.08111,0.25085 -2.6474,0.33521 l -1.02963,0.1534 z"
       id="path2503" />
    <path
       style="fill:#ffffff;fill-opacity:1"
       d="m 395.24252,306.64308 c -0.0873,-0.35531 -0.1237,-3.23377 -0.081,-6.39657 l 0.0777,-5.75055 3.08888,-0.43311 3.08887,-0.43311 9.3e-4,1.65331 c 4.9e-4,0.90931 0.0811,3.58796 0.17922,5.95253 l 0.17831,4.29924 -2.17641,0.68752 c -1.19702,0.37814 -2.63123,0.77286 -3.18714,0.87715 -0.90728,0.17021 -1.02698,0.12349 -1.1694,-0.45641 z"
       id="path2505" />
    <path
       style="fill:#ffffff;fill-opacity:1"
       d="m 395.37653,316.75921 v -5.84915 l 2.60549,-0.62812 c 1.43301,-0.34547 2.85645,-0.69375 3.16319,-0.77396 0.5491,-0.14359 0.55656,-0.0576 0.48339,5.5701 l -0.0743,5.71595 -2.60839,0.88842 c -1.43461,0.48864 -2.82461,0.89686 -3.08888,0.90717 -0.44316,0.0173 -0.48049,-0.4357 -0.48049,-5.83041 z"
       id="path2507" />
    <path
       style="fill:#ffffff;fill-opacity:1"
       d="m 405.25982,317.04838 c -6.1e-4,-1.09484 -0.0802,-3.54055 -0.17679,-5.43491 l -0.17567,-3.4443 2.71652,-1.35025 c 1.4941,-0.74264 2.80921,-1.39611 2.92247,-1.45215 0.11326,-0.056 0.20571,2.34862 0.20543,5.34369 l -4.9e-4,5.44557 -1.16641,0.73425 c -1.25186,0.78802 -3.88487,2.14871 -4.15789,2.14871 -0.0913,0 -0.16655,-0.89578 -0.16717,-1.99061 z"
       id="path2509" />
    <path
       style="fill:#ffffff;fill-opacity:1"
       d="m 404.98637,298.51678 v -5.7035 l 2.26518,-0.59145 c 1.24585,-0.32529 2.4814,-0.67726 2.74567,-0.78215 0.44693,-0.17738 0.48049,0.15628 0.48049,4.77744 v 4.96813 l -1.03978,0.65639 c -0.57188,0.36101 -1.80744,1.04389 -2.74567,1.51751 l -1.70589,0.86113 z"
       id="path2511" />
    <path
       style="fill:#ffffff;fill-opacity:1"
       d="m 414.22654,309.6606 c -0.099,-1.83584 -0.179,-7.05605 -0.1785,-11.60045 l 10e-4,-8.26254 1.4898,-0.80361 c 1.609,-0.86793 1.7935,-1.20362 1.7993,-3.27526 0.01,-3.31977 1.8408,-7.44153 4.5099,-10.1499 2.0827,-2.11328 4.453,-3.83534 4.1976,-3.04962 -0.095,0.2914 -1.1606,3.43336 -2.3685,6.98214 -3.3009,9.6976 -5.2507,18.17622 -6.3678,27.68989 -0.311,2.64899 -0.4081,2.9421 -1.4322,4.32443 -0.6042,0.81556 -1.1824,1.48283 -1.2849,1.48283 -0.1024,0 -0.267,-1.50205 -0.3657,-3.3379 z"
       id="path2513" />
    <path
       style="fill:#ffffff;fill-opacity:1"
       d="m 386.60606,318.07258 c 0,-5.60922 0.0491,-6.01859 0.72239,-6.01859 0.39733,0 1.53309,-0.11112 2.52393,-0.24693 l 1.80153,-0.24693 v 6.02056 6.02057 l -1.45611,0.24068 c -0.80087,0.13237 -1.93663,0.2426 -2.52393,0.24495 l -1.06781,0.004 z"
       id="path2580" />
  </g>
</svg>
